<svg width="100" height="100" viewBox="0 0 100 100" fill="none" xmlns="http://www.w3.org/2000/svg">
<circle cx="50" cy="50" r="50" fill="#FDCA49"/>
<path d="M29.2756 63V36.8182H46.9176V41.3821H34.8111V47.6207H46.0099V52.1847H34.8111V58.4361H46.9688V63H29.2756ZM51.3185 63V36.8182H61.8015C63.7276 36.8182 65.3342 37.1037 66.6211 37.6747C67.908 38.2457 68.8754 39.0384 69.5231 40.0526C70.1708 41.0582 70.4947 42.2173 70.4947 43.5298C70.4947 44.5526 70.2901 45.4517 69.881 46.2273C69.4719 46.9943 68.9094 47.625 68.1935 48.1193C67.4862 48.6051 66.6765 48.9503 65.7646 49.1548V49.4105C66.7617 49.4531 67.695 49.7344 68.5643 50.2543C69.4421 50.7741 70.1538 51.5028 70.6992 52.4403C71.2447 53.3693 71.5174 54.4773 71.5174 55.7642C71.5174 57.1534 71.1722 58.3935 70.4819 59.4844C69.8001 60.5668 68.7901 61.4233 67.4521 62.054C66.114 62.6847 64.4648 63 62.5046 63H51.3185ZM56.854 58.4744H61.3668C62.9094 58.4744 64.0344 58.1804 64.7418 57.5923C65.4492 56.9957 65.8029 56.2031 65.8029 55.2145C65.8029 54.4901 65.6282 53.8509 65.2788 53.2969C64.9293 52.7429 64.4308 52.3082 63.783 51.9929C63.1438 51.6776 62.381 51.5199 61.4947 51.5199H56.854V58.4744ZM56.854 47.7741H60.9577C61.7163 47.7741 62.3896 47.642 62.9776 47.3778C63.5742 47.1051 64.043 46.7216 64.3839 46.2273C64.7333 45.733 64.908 45.1406 64.908 44.4503C64.908 43.5043 64.5714 42.7415 63.8981 42.1619C63.2333 41.5824 62.2873 41.2926 61.06 41.2926H56.854V47.7741Z" fill="white"/>
</svg>
