<svg width="128" height="62" viewBox="0 0 128 62" fill="none" xmlns="http://www.w3.org/2000/svg">
<path d="M100.612 61.2349C100.162 61.0849 99.7123 60.9349 99.2623 60.7749C98.0923 60.3649 96.9823 59.8149 95.9323 59.1649C94.9823 58.5749 94.1122 57.8949 93.2822 57.1549C92.5122 56.4749 91.8523 55.7049 91.2123 54.9149C90.3123 53.8049 89.5823 52.6049 88.9623 51.3249C88.2823 49.9149 87.7523 48.4549 87.4223 46.9349C87.2423 46.1249 87.1023 45.3049 87.0023 44.4849C86.9123 43.7849 86.8822 43.0649 86.8422 42.3649C86.8122 41.9449 86.7722 41.5249 86.7922 41.1049C86.8422 40.2349 86.9123 39.3649 87.0023 38.4949C87.1623 36.8649 87.5523 35.2749 88.1123 33.7349C88.6223 32.3349 89.2723 31.0049 90.0823 29.7449C90.9723 28.3549 92.0522 27.1149 93.2822 25.9949C94.1122 25.2349 95.0323 24.5749 96.0123 24.0049C97.2623 23.2749 98.5722 22.6649 99.9722 22.2849C100.892 22.0349 101.832 21.8449 102.762 21.6649C104.082 21.4149 105.432 21.4049 106.772 21.4649C108.332 21.5349 109.872 21.7949 111.362 22.2449C112.382 22.5549 113.372 22.9449 114.322 23.4349C115.322 23.9549 116.272 24.5649 117.142 25.2849C117.522 25.6049 117.892 25.9249 118.282 26.2649C118.282 24.8849 118.282 23.4949 118.282 22.0749C121.472 22.0749 124.632 22.0749 127.792 22.0749C127.792 35.1249 127.792 48.1849 127.792 61.2349C124.622 61.2349 121.462 61.2349 118.292 61.2349C118.292 59.8049 118.292 58.3749 118.292 56.9149C117.842 57.3049 117.462 57.7049 117.022 58.0249C116.332 58.5249 115.622 58.9849 114.902 59.4349C114.082 59.9549 113.182 60.3449 112.272 60.6749C111.732 60.8649 111.192 61.0549 110.652 61.2349C107.302 61.2349 103.962 61.2349 100.612 61.2349ZM118.282 41.6349C118.302 41.6349 118.332 41.6249 118.352 41.6249C118.242 40.6549 118.162 39.6649 118.002 38.7049C117.822 37.6749 117.482 36.6749 117.012 35.7249C116.592 34.8749 116.082 34.0849 115.452 33.3649C114.862 32.7049 114.232 32.0949 113.492 31.5949C112.542 30.9449 111.522 30.4649 110.412 30.1249C109.492 29.8449 108.552 29.6949 107.602 29.6849C106.912 29.6749 106.222 29.7549 105.542 29.8349C104.612 29.9349 103.722 30.2149 102.872 30.6049C101.552 31.2049 100.412 32.0349 99.4623 33.1149C98.8123 33.8449 98.2822 34.6449 97.8422 35.5049C97.3922 36.3949 97.0523 37.3349 96.8223 38.3149C96.5923 39.2849 96.4823 40.2749 96.4323 41.2749C96.4123 41.5949 96.4523 41.9049 96.4823 42.2249C96.5423 42.8849 96.5723 43.5549 96.7023 44.2049C97.0123 45.6749 97.5122 47.0849 98.2922 48.3849C99.0422 49.6349 99.9722 50.7349 101.162 51.6249C102.952 52.9749 104.992 53.5949 107.212 53.6449C107.802 53.6649 108.392 53.5649 108.982 53.4949C109.882 53.3949 110.752 53.1349 111.582 52.7749C113.152 52.0849 114.502 51.1149 115.582 49.7849C116.412 48.7649 117.042 47.6549 117.492 46.4349C118.052 44.8649 118.292 43.2749 118.282 41.6349Z" fill="#6911CF"/>
<path d="M0.822266 46.6249C4.12227 46.6249 7.41225 46.6249 10.6823 46.6249C10.8123 47.3349 10.9023 48.0349 11.0723 48.7149C11.3023 49.6649 11.7722 50.5149 12.4222 51.2549C13.2622 52.2249 14.3222 52.8449 15.5422 53.2249C16.2722 53.4549 17.0122 53.6149 17.7822 53.6349C18.2922 53.6549 18.8023 53.7049 19.3123 53.6749C20.6623 53.6049 21.9623 53.3749 23.2023 52.8049C24.0423 52.4249 24.7622 51.9049 25.3622 51.2249C26.0522 50.4449 26.4722 49.5349 26.6122 48.5149C26.6722 48.0449 26.7323 47.5749 26.7123 47.1049C26.6623 45.9849 26.2822 44.9749 25.5322 44.1049C24.6522 43.0849 23.5022 42.4849 22.2922 41.9549C20.5322 41.1949 18.6623 40.7349 16.8123 40.2449C15.3623 39.8649 13.9122 39.4549 12.4722 39.0349C10.8022 38.5449 9.17226 37.9349 7.63226 37.1249C6.74226 36.6549 5.89224 36.1149 5.11224 35.4749C3.79224 34.4049 2.78224 33.1249 2.08224 31.6049C1.66224 30.6949 1.35225 29.7449 1.21225 28.7549C1.12225 28.1149 1.10224 27.4649 0.982239 26.8249C0.872239 26.2649 0.982262 25.7149 0.912262 25.1549C0.862262 24.7449 0.982246 24.3149 1.05225 23.8949C1.16225 23.2849 1.27224 22.6749 1.42224 22.0749C1.74224 20.7649 2.29225 19.5549 3.02225 18.4049C3.52225 17.6249 4.09226 16.9149 4.75226 16.2649C5.67226 15.3649 6.69225 14.5949 7.83224 13.9749C8.89224 13.3949 9.99228 12.9149 11.1523 12.5649C12.2123 12.2449 13.2723 11.9649 14.3723 11.8449C15.3623 11.7349 16.3522 11.6549 17.3422 11.5849C17.8222 11.5449 18.3122 11.5149 18.7922 11.5349C19.7022 11.5749 20.6222 11.6549 21.5322 11.7349C22.9922 11.8649 24.4122 12.2049 25.7922 12.6749C27.4122 13.2249 28.9323 13.9549 30.2623 15.0249C30.9423 15.5749 31.6223 16.1549 32.2123 16.7849C33.1823 17.8349 33.9222 19.0349 34.4922 20.3449C34.9823 21.4649 35.3023 22.6249 35.5223 23.8149C35.6223 24.3349 35.6323 24.8649 35.6923 25.3949C35.7123 25.5649 35.7323 25.7349 35.7623 25.9249C32.3223 25.9249 28.9022 25.9249 25.4922 25.9249C25.4122 25.4149 25.3522 24.9049 25.2322 24.4049C25.0022 23.4649 24.5122 22.6549 23.8422 21.9449C22.7022 20.7449 21.2523 20.1249 19.6523 19.8149C18.7123 19.6349 17.7522 19.6049 16.7922 19.6649C15.6622 19.7349 14.5722 19.9749 13.5522 20.4749C12.0422 21.2149 11.0923 22.3949 10.7023 24.0049C10.5423 24.6849 10.4922 25.3649 10.5522 26.0449C10.6422 27.0049 11.0022 27.8549 11.6722 28.5849C12.6622 29.6749 13.9423 30.2949 15.2723 30.8249C17.2523 31.6049 19.3122 32.0949 21.3622 32.6549C23.2922 33.1849 25.2223 33.7349 27.0723 34.4849C28.7423 35.1649 30.3523 35.9849 31.7623 37.1049C32.9223 38.0249 33.8923 39.1049 34.6323 40.3849C35.3323 41.6149 35.7723 42.9249 36.0223 44.3149C36.2423 45.5149 36.2723 46.7349 36.2123 47.9349C36.1323 49.3949 35.7823 50.8049 35.2123 52.1649C34.8323 53.0849 34.3522 53.9549 33.7922 54.7849C33.1322 55.7449 32.3622 56.6049 31.4922 57.3749C30.2622 58.4649 28.8722 59.3249 27.3622 59.9949C26.2222 60.4949 25.0423 60.8849 23.8123 61.1449C23.7923 61.1449 23.7723 61.1749 23.7623 61.1949C20.2823 61.1949 16.7923 61.1949 13.3123 61.1949C13.2823 61.1649 13.2622 61.1049 13.2322 61.0949C12.8322 60.9849 12.4322 60.8849 12.0322 60.7849C10.2522 60.3049 8.60226 59.5749 7.06226 58.5849C5.94226 57.8649 4.94226 57.0049 4.06226 56.0149C3.37226 55.2349 2.78227 54.3849 2.29227 53.4849C1.78227 52.5349 1.41224 51.5249 1.17224 50.4749C1.07224 50.0449 1.02224 49.6149 0.95224 49.1849C0.92224 49.0149 0.882264 48.8449 0.852264 48.6749C0.822264 48.0049 0.822266 47.3149 0.822266 46.6249Z" fill="#6911CF"/>
<path d="M62.6323 61.2349C62.6323 48.1949 62.6323 35.1549 62.6323 22.0949C65.7823 22.0949 68.9123 22.0949 72.0723 22.0949C72.0723 23.3449 72.0723 24.5949 72.0723 25.9349C75.1623 22.4849 79.1123 21.3349 83.5723 21.4549C83.5723 24.6249 83.5723 27.7749 83.5723 30.9649C83.4823 30.9649 83.3923 30.9649 83.3023 30.9649C82.3023 30.9649 81.3023 30.9349 80.3023 30.9749C79.1023 31.0149 77.9123 31.1449 76.7723 31.5449C75.9723 31.8249 75.2323 32.2149 74.5923 32.7849C73.4523 33.7849 72.8623 35.0649 72.5023 36.4749C72.2823 37.3549 72.1423 38.2449 72.1223 39.1449C72.1123 39.7249 72.0723 40.2949 72.0723 40.8749C72.0723 47.6649 72.0723 54.4449 72.0723 61.2349C68.9223 61.2349 65.7823 61.2349 62.6323 61.2349Z" fill="#6911CF"/>
<path d="M44.1724 61.235C44.1724 48.195 44.1724 35.155 44.1724 22.095C47.3224 22.095 50.4524 22.095 53.6124 22.095C53.6124 35.145 53.6124 48.195 53.6124 61.235C50.4624 61.235 47.3124 61.235 44.1724 61.235Z" fill="#6911CF"/>
<path d="M39.7124 9.50492C39.6124 4.64492 43.8524 0.224915 49.3724 0.494915C54.0424 0.714915 58.1224 4.43492 58.1124 9.60492C58.1124 12.0449 57.1824 14.1749 55.4124 15.8949C53.5424 17.7149 51.2424 18.6049 48.5924 18.5349C43.8224 18.3949 39.6724 14.5549 39.7124 9.50492ZM48.9024 14.3249C51.6124 14.3749 53.7124 12.1349 53.8224 9.77491C53.9524 6.81491 51.5624 4.64491 48.8924 4.66491C46.1524 4.68491 44.0424 6.76492 43.9624 9.37492C43.8824 12.1649 46.2324 14.3849 48.9024 14.3249Z" fill="#EF904F"/>
</svg>
